# xmcd
#
# Track frame offsets:
# 150
# 12900
# 28892
#
# Disc length: 614 seconds
#
#
# Revision: 0
# Processed by: cddbd v1.5.1PL2 Copyright (c) Steve Scherf et al.
# Submitted via: Nero 7, 0, 5, 4 
#
DISCID=1c026403
DTITLE=LCE (Ladies Country Express) - Wo sind die Cowboys (Single)
DYEAR=1996
DGENRE=country
TTITLE0=Wo sind die Cowboys
TTITLE1=Feuer der Nacht
TTITLE2=Adios, alter Truck
EXTD=
EXTT0=
EXTT1=
EXTT2=
PLAYORDER=
